HIERARCHY
ROOT hip
{
	OFFSET 0.000000 0.000000 0.000000 
	CHANNELS 6 Xposition Yposition Zposition Xrotation Zrotation Yrotation
	JOINT abdomen
	{
		OFFSET 0.000000 3.402643 0.000000 
		CHANNELS 3 Xrotation Zrotation Yrotation
		JOINT chest
		{
			OFFSET 0.000000 8.438565 -0.680529 
			CHANNELS 3 Xrotation Zrotation Yrotation
			JOINT neck
			{
				OFFSET 0.000000 10.207942 -0.272212 
				CHANNELS 3 Xrotation Zrotation Yrotation
				JOINT head
				{
					OFFSET 0.000000 3.130431 0.000000 
					CHANNELS 3 Xrotation Zrotation Yrotation
					End Site
					{
						OFFSET 0.000000 3.130435 0.000000 
					}
				}
			}
			JOINT lCollar
			{
				OFFSET 3.470700 6.669187 -0.816635 
				CHANNELS 3 Yrotation Zrotation Xrotation
				JOINT lShldr
				{
					OFFSET 3.198488 0.000000 0.000000 
					CHANNELS 3 Zrotation Yrotation Xrotation
					JOINT lForeArm
					{
						OFFSET 10.139888 0.000000 0.000000 
						CHANNELS 3 Yrotation Zrotation Xrotation
						JOINT lHand
						{
							OFFSET 8.370511 0.000000 0.000000 
							CHANNELS 3 Zrotation Yrotation Xrotation
							End Site
							{
								OFFSET 4.083176 0.000000 0.000000 
							}
						}
					}
				}
			}
			JOINT rCollar
			{
				OFFSET -3.470700 6.669187 -0.816635 
				CHANNELS 3 Yrotation Zrotation Xrotation
				JOINT rShldr
				{
					OFFSET -3.198488 0.000000 0.000000 
					CHANNELS 3 Zrotation Yrotation Xrotation
					JOINT rForeArm
					{
						OFFSET -10.139888 0.000000 0.000000 
						CHANNELS 3 Yrotation Zrotation Xrotation
						JOINT rHand
						{
							OFFSET -8.370511 0.000000 0.000000 
							CHANNELS 3 Zrotation Yrotation Xrotation
							End Site
							{
								OFFSET -4.083176 0.000000 0.000000 
							}
						}
					}
				}
			}
		}
	}
	JOINT lThigh
	{
		OFFSET 5.308129 -1.633274 1.361059 
		CHANNELS 3 Xrotation Zrotation Yrotation
		JOINT lShin
		{
			OFFSET -2.041588 -20.007561 0.000000 
			CHANNELS 3 Xrotation Zrotation Yrotation
			JOINT lFoot
			{
				OFFSET 0.000000 -19.190928 -1.224953 
				CHANNELS 3 Xrotation Yrotation Zrotation
				End Site
				{
					OFFSET 0.000000 -2.449906 4.627600 
				}
			}
		}
	}
	JOINT rThigh
	{
		OFFSET -5.308129 -1.633274 1.361059 
		CHANNELS 3 Xrotation Zrotation Yrotation
		JOINT rShin
		{
			OFFSET 2.041588 -20.007561 0.000000 
			CHANNELS 3 Xrotation Zrotation Yrotation
			JOINT rFoot
			{
				OFFSET 0.000000 -19.190928 -1.224953 
				CHANNELS 3 Xrotation Yrotation Zrotation
				End Site
				{
					OFFSET 0.000000 -2.449906 4.627600 
				}
			}
		}
	}
}
MOTION
Frames: 8
Frame Time: 0.016667
-1.322278 44.607311 -1.009585 3.447547 -0.731097 -2.085179 1.372046 4.822842 -0.128351 -5.580882 4.121066 -0.509415 -12.645178 -3.278018 0.873940 26.228676 8.388523 -1.280118 2.239031 1.334920 0.039219 -89.615517 4.091732 -133.630127 87.885475 -2.470179 3.336221 1.643533 -3.398415 160.565414 -3.938843 -2.982474 0.045583 81.157333 -6.349842 -143.158554 -93.845680 2.482261 3.423700 178.336945 176.602783 7.430067 -10.340096 2.431109 3.360041 25.233438 0.008789 0.002425 -13.681800 -3.855440 -0.934088 -13.569397 0.634302 1.289969 29.934162 0.008401 0.005591 -14.766175 -2.001619 -0.522113 
-1.389367 44.556862 -0.982584 2.988464 -0.633902 -1.205074 1.195320 4.637667 -0.010288 -5.835013 4.060952 -0.453362 -12.645178 -3.278018 0.873940 26.299007 8.424225 -1.279098 2.239031 1.334920 0.039219 -89.301315 4.676637 -133.537949 88.071129 -2.470679 3.339545 1.643533 -3.398415 159.881821 -3.938843 -2.982474 0.045583 81.202972 -6.893157 -142.914215 -93.904312 2.482321 3.424762 178.336945 176.602783 7.771864 -10.079029 2.253327 2.677270 25.565592 -0.001098 -0.003106 -13.816309 -4.103379 -1.014268 -13.132009 0.449207 0.818004 30.295208 -0.006277 0.016603 -15.195662 -2.323163 -0.627640 
-1.493770 44.495106 -0.990755 2.500415 -1.043927 -0.709817 1.107095 4.608518 0.314069 -6.079037 3.962041 -0.294324 -12.645178 -3.278018 0.873940 26.349304 8.451060 -1.274822 2.239031 1.334920 0.039219 -89.069550 5.076972 -133.638763 88.471771 -2.471722 3.346726 1.643533 -3.398415 159.081039 -3.938843 -2.982474 0.045583 81.346443 -6.896369 -142.492325 -93.796822 2.482212 3.422816 -1.663062 3.397223 -171.163681 -10.018028 2.763369 2.183792 26.289186 0.004412 0.008072 -14.056287 -4.367715 -1.098361 -12.654869 1.025465 0.641586 30.461462 -0.014729 0.011490 -15.362048 -2.829741 -0.785171 
-1.598185 44.433220 -0.998925 2.002590 -1.444430 -0.197215 1.018878 4.579357 0.628751 -6.323092 3.872853 -0.145289 -12.645178 -3.278018 0.873940 26.389740 8.478207 -1.281704 2.239031 1.334920 0.039219 -88.837669 5.477203 -133.749222 88.872398 -2.472715 3.353913 1.643533 -3.398415 158.280258 -3.938843 -2.982474 0.045583 81.499107 -6.910125 -142.061798 -93.679565 2.482088 3.420693 -1.663062 3.397223 -170.089462 -9.967616 3.289888 1.709689 27.040932 0.008664 -0.011334 -14.290926 -4.641455 -1.188211 -12.170616 1.590587 0.480644 30.637852 0.008333 0.005067 -15.548817 -3.328683 -0.907956 
-1.688333 44.379879 -0.952604 1.582687 -1.649761 1.067442 1.038345 4.491453 0.570118 -6.214720 3.776568 -0.156788 -12.645178 -3.278018 0.873940 26.468033 8.456604 -1.235757 2.239031 1.334920 0.039219 -88.669334 5.539143 -133.740585 88.921265 -2.472832 3.354791 1.643533 -3.398415 157.528305 -3.938843 -2.982474 0.045583 81.547417 -6.751145 -141.554611 -93.826141 2.482241 3.423347 -1.663062 3.397223 -169.054306 -9.963238 3.483850 0.805222 27.657179 0.003986 0.001836 -14.514145 -5.223537 -1.366613 -11.585815 1.747148 -0.439030 30.686647 0.008365 0.007067 -15.857879 -3.798581 -1.065404 
-1.778480 44.326397 -0.906285 1.152942 -1.845330 2.335620 1.048016 4.403563 0.520442 -6.116176 3.680162 -0.169274 -12.645178 -3.278018 0.873940 26.536453 8.435328 -1.191297 2.239031 1.334920 0.039219 -88.490875 5.610460 -133.732101 88.970116 -2.472949 3.355667 1.643533 -3.398415 156.766586 -3.938843 -2.982474 0.045583 81.595680 -6.592235 -141.047348 -93.972717 2.482388 3.426000 -1.663062 3.397223 -168.019150 -9.981741 3.688040 -0.069376 28.272314 0.008551 -0.012117 -14.710582 -5.820247 -1.520926 -11.017821 1.912377 -1.359313 30.744820 0.008394 0.019179 -16.182877 -4.288263 -1.238512 
-1.878955 44.271214 -0.840145 0.732951 -2.177556 3.917110 0.940301 4.423235 0.414860 -6.194460 3.679622 -0.213351 -12.645178 -3.278018 0.873940 26.753187 8.418517 -1.162157 2.239031 1.334920 0.039219 -88.592834 5.967785 -134.503998 89.351212 -2.473835 3.362513 1.643533 -3.398415 158.319321 -3.938843 -2.982474 0.045583 81.520264 -6.502438 -140.648621 -94.236542 2.482635 3.430779 -1.663062 3.397223 -166.808212 -10.014467 3.982199 -1.258884 28.769970 0.023004 -0.028733 -14.815575 -6.356244 -1.694463 -10.297962 2.156777 -2.724513 30.599190 0.013265 -0.004983 -16.432457 -4.613240 -1.352223 
-1.979443 44.216030 -0.774005 0.303021 -2.490200 5.494235 0.832569 4.433128 0.318827 -6.282599 3.688712 -0.259120 -12.645178 -3.278018 0.873940 26.960039 8.401944 -1.124776 2.239031 1.334920 0.039219 -88.695030 6.315501 -135.276611 89.732307 -2.474675 3.369363 1.643533 -3.398415 159.881821 -3.938843 -2.982474 0.045583 81.435089 -6.412031 -140.250031 -94.490616 2.482853 3.435380 -1.663062 3.397223 -165.607040 -10.039863 4.283527 -2.450119 29.268375 0.023020 -0.029320 -14.937359 -6.881020 -1.841666 -9.607283 2.430491 -4.090446 30.462572 0.023132 -0.008068 -16.685762 -4.948040 -1.473809 
